<?xml version="1.0" standalone="no"?>
<!DOCTYPE svg PUBLIC "-//W3C//DTD SVG 20010904//EN"
 "http://www.w3.org/TR/2001/REC-SVG-20010904/DTD/svg10.dtd">
<svg version="1.0" xmlns="http://www.w3.org/2000/svg"
 width="700.000000pt" height="700.000000pt" viewBox="0 0 700.000000 700.000000"
 preserveAspectRatio="xMidYMid meet">
<metadata>
Created by potrace 1.14, written by Peter Selinger 2001-2017
</metadata>
<g transform="translate(0.000000,700.000000) scale(0.100000,-0.100000)"
fill="#000000" stroke="none">
<path d="M3775 6961 c-254 -63 -436 -276 -573 -671 -44 -129 -94 -276 -97
-290 -1 -3 -5 -12 -8 -20 -28 -65 -143 -464 -161 -560 -11 -56 -26 -130 -45
-220 -11 -52 -37 -174 -57 -270 -20 -96 -38 -184 -40 -195 -8 -35 -25 -158
-30 -215 -3 -30 -11 -102 -19 -160 -8 -58 -17 -132 -20 -165 -8 -78 -13 -113
-31 -215 -19 -105 -22 -157 -29 -435 -5 -222 -11 -371 -20 -500 -2 -38 -7
-142 -11 -230 -7 -167 -7 -169 -61 -235 -6 -8 -116 -159 -244 -335 -188 -259
-306 -413 -359 -465 -3 -3 -38 -42 -79 -88 -69 -78 -232 -240 -399 -399 l-73
-70 89 -194 c49 -107 102 -221 117 -254 27 -58 67 -144 134 -292 l33 -72 157
161 c242 249 267 275 406 423 132 142 203 219 287 311 l46 51 7 -26 c4 -14 9
-37 11 -51 2 -14 7 -36 10 -50 3 -14 8 -36 10 -50 3 -14 18 -81 35 -150 16
-69 31 -134 33 -145 44 -224 96 -353 193 -482 84 -112 183 -194 310 -257 185
-92 358 -125 618 -121 83 2 170 6 195 9 422 61 843 257 1311 613 79 59 147
110 151 113 4 3 -45 143 -108 310 -64 168 -129 341 -145 385 -17 44 -34 83
-38 88 -4 4 -25 -5 -47 -21 -21 -15 -103 -69 -180 -119 -489 -318 -863 -412
-1134 -286 -97 45 -198 134 -236 208 -23 43 -52 148 -59 208 -3 29 -7 63 -10
77 -2 14 -6 50 -9 80 -6 52 -9 92 -21 235 -8 101 -16 291 -20 487 l-4 188 181
277 c99 153 195 301 213 328 18 28 78 124 132 215 55 91 158 260 228 375 318
520 426 743 601 1240 187 533 233 709 228 872 -5 156 -51 290 -140 413 -39 54
-185 191 -281 263 -266 200 -338 250 -448 302 -178 86 -354 112 -500 76z m346
-1118 c3 -31 3 -41 -4 -106 -7 -73 -19 -120 -104 -387 -104 -330 -159 -478
-278 -745 -68 -152 -77 -164 -60 -75 84 434 169 749 332 1224 l58 168 27 -33
c16 -18 29 -39 29 -46z"/>
</g>
</svg>
